<?xml version="1.0" encoding="UTF-8"?>
<svg id="Layer_1" xmlns="http://www.w3.org/2000/svg" xmlns:xlink="http://www.w3.org/1999/xlink" version="1.1" viewBox="0 0 300.46 264.24">
  <!-- Generator: Adobe Illustrator 29.5.1, SVG Export Plug-In . SVG Version: 2.1.0 Build 141)  -->
  <defs>
    <style>
      .st0 {
        fill: none;
      }

      .st1 {
        fill: #f33;
      }

      .st2 {
        fill: #b20000;
      }

      .st3 {
        fill: #c00;
      }

      .st4 {
        fill: #f66;
      }

      .st5 {
        fill: #0000b2;
      }

      .st6 {
        clip-path: url(#clippath);
      }

      .st7 {
        fill: #bfbfbf;
      }

      .st8 {
        fill: #4d4d4d;
      }
    </style>
    <clipPath id="clippath">
      <rect class="st0" width="300.46" height="264.24"/>
    </clipPath>
  </defs>
  <g class="st6">
    <polyline class="st7" points="69.18 218.28 69.18 25.52 69.58 25.52 69.58 218.28"/>
    <polyline class="st7" points="103.2 218.28 103.2 25.52 103.6 25.52 103.6 218.28"/>
    <polyline class="st7" points="148.55 218.28 148.55 25.52 148.95 25.52 148.95 218.28"/>
    <polyline class="st7" points="182.57 218.28 182.57 25.52 182.97 25.52 182.97 218.28"/>
    <polyline class="st7" points="216.59 218.28 216.59 25.52 216.98 25.52 216.98 218.28"/>
    <polyline class="st7" points="261.94 218.28 261.94 25.52 262.34 25.52 262.34 218.28"/>
    <polyline class="st7" points="69.38 218.08 262.14 218.08 262.14 218.48 69.38 218.48"/>
    <polyline class="st7" points="69.38 184.07 262.14 184.07 262.14 184.47 69.38 184.47"/>
    <polyline class="st7" points="69.38 138.71 262.14 138.71 262.14 139.11 69.38 139.11"/>
    <polyline class="st7" points="69.38 104.7 262.14 104.7 262.14 105.09 69.38 105.09"/>
    <polyline class="st7" points="69.38 70.68 262.14 70.68 262.14 71.08 69.38 71.08"/>
    <polyline class="st7" points="69.38 25.32 262.14 25.32 262.14 25.72 69.38 25.72"/>
    <circle class="st8" cx="69.38" cy="218.28" r="2.82"/>
    <circle class="st8" cx="69.38" cy="184.27" r="2.82"/>
    <circle class="st8" cx="69.38" cy="138.91" r="2.82"/>
    <circle class="st8" cx="69.38" cy="104.89" r="2.82"/>
    <circle class="st8" cx="69.38" cy="70.88" r="2.82"/>
    <circle class="st8" cx="69.38" cy="25.52" r="2.82"/>
    <circle class="st8" cx="103.4" cy="218.28" r="2.82"/>
    <circle class="st8" cx="103.4" cy="184.27" r="2.82" transform="translate(-17.65 11.09) rotate(-5.65)"/>
    <circle class="st8" cx="103.4" cy="138.91" r="2.82" transform="translate(-35.82 35.92) rotate(-16.85)"/>
    <circle class="st8" cx="103.4" cy="104.89" r="2.82" transform="translate(-21.33 26.56) rotate(-13.28)"/>
    <circle class="st8" cx="103.4" cy="70.88" r="2.82"/>
    <circle class="st8" cx="103.4" cy="25.52" r="2.82"/>
    <circle class="st8" cx="148.75" cy="218.28" r="2.82"/>
    <circle class="st8" cx="148.75" cy="184.27" r="2.82" transform="translate(-17.43 15.55) rotate(-5.65)"/>
    <circle class="st8" cx="148.75" cy="138.91" r="2.82" transform="translate(-33.87 49.07) rotate(-16.85)"/>
    <circle class="st8" cx="148.75" cy="104.89" r="2.82" transform="translate(-20.12 36.98) rotate(-13.28)"/>
    <circle class="st8" cx="148.75" cy="70.88" r="2.82"/>
    <circle class="st8" cx="148.75" cy="25.52" r="2.82"/>
    <circle class="st8" cx="182.77" cy="218.28" r="2.82"/>
    <circle class="st8" cx="182.77" cy="184.27" r="2.82" transform="translate(-17.27 18.91) rotate(-5.65)"/>
    <circle class="st8" cx="182.77" cy="138.91" r="2.82" transform="translate(-32.41 58.92) rotate(-16.85)"/>
    <circle class="st8" cx="182.77" cy="104.89" r="2.82" transform="translate(-19.21 44.8) rotate(-13.28)"/>
    <circle class="st8" cx="182.77" cy="70.88" r="2.82"/>
    <circle class="st8" cx="182.77" cy="25.52" r="2.82"/>
    <circle class="st8" cx="216.78" cy="218.28" r="2.82"/>
    <circle class="st8" cx="216.78" cy="184.27" r="2.82" transform="translate(-17.1 22.26) rotate(-5.65)"/>
    <circle class="st8" cx="216.78" cy="138.91" r="2.82" transform="translate(-30.95 68.78) rotate(-16.85)"/>
    <circle class="st8" cx="216.78" cy="104.89" r="2.82" transform="translate(-18.3 52.61) rotate(-13.28)"/>
    <circle class="st8" cx="216.78" cy="70.88" r="2.82"/>
    <circle class="st8" cx="216.78" cy="25.52" r="2.82"/>
    <circle class="st8" cx="262.14" cy="218.28" r="2.82"/>
    <circle class="st8" cx="262.14" cy="184.27" r="2.82" transform="translate(-12.4 19.05) rotate(-4.07)"/>
    <circle class="st8" cx="262.14" cy="138.91" r="2.82" transform="translate(-24.9 63.94) rotate(-13.28)"/>
    <circle class="st8" cx="262.14" cy="104.89" r="2.82" transform="translate(-13.42 43.34) rotate(-9.22)"/>
    <circle class="st8" cx="262.14" cy="70.88" r="2.82"/>
    <circle class="st8" cx="262.14" cy="25.52" r="2.82"/>
    <polyline class="st2" points="69.38 217.68 262.14 217.68 262.14 218.88 69.38 218.88"/>
    <polyline class="st5" points="69.38 24.93 262.14 24.93 262.14 26.12 69.38 26.12"/>
    <path d="M69.37,230.87c-.27,0-.82-.13-.99-.96-.09-.45-.09-1.2-.09-1.62,0-.55,0-1.11.09-1.55.17-.81.79-.89.99-.89.27,0,.82.14.98.86.1.44.1,1.04.1,1.58,0,.47,0,1.19-.1,1.63-.17.84-.72.95-.98.95ZM71.16,228.38c0-.85-.09-1.37-.35-1.88-.35-.7-1-.88-1.43-.88-1,0-1.37.75-1.48.97-.29.58-.3,1.37-.3,1.78,0,.53.02,1.33.41,1.97.37.59.96.74,1.38.74.38,0,1.07-.12,1.47-.91.29-.57.32-1.28.32-1.8Z"/>
    <path d="M103.78,225.85c0-.22-.02-.22-.23-.22-.33.32-.75.51-1.51.51v.26c.22,0,.65,0,1.11-.22v4.09c0,.29-.02.39-.78.39h-.28v.26c.33-.02,1.01-.02,1.37-.02s1.05,0,1.38.02v-.26h-.28c-.76,0-.78-.1-.78-.39v-4.42Z"/>
    <path d="M129.87,225.57c0-.26-.21-.48-.48-.48s-.48.22-.48.48.21.48.48.48.48-.22.48-.48ZM125.78,225.57c0-.26-.21-.48-.48-.48s-.48.22-.48.48.21.48.48.48.48-.22.48-.48ZM121.69,225.57c0-.26-.21-.48-.48-.48s-.48.22-.48.48.21.48.48.48.48-.22.48-.48Z"/>
    <path d="M143.11,229.01l-.43,1.1c-.04.12-.08.22-.08.35,0,.39.3.68.72.68.77,0,1.1-1.12,1.1-1.22l-.12-.1c-.1,0-.11.06-.14.14-.18.64-.51.96-.83.96-.1,0-.19-.04-.19-.25,0-.19.06-.33.16-.58.08-.22.16-.43.25-.65l.25-.65c.07-.18.17-.43.17-.57,0-.4-.32-.68-.72-.68-.77,0-1.11,1.12-1.11,1.22l.12.1c.1,0,.11-.05.14-.13.22-.76.59-.97.83-.97.11,0,.19.04.19.26,0,.08,0,.19-.09.43l-.22.55ZM144.27,226.08c0-.18-.13-.3-.31-.3-.21,0-.44.19-.44.43,0,.18.13.3.31.3.21,0,.44-.19.44-.43Z"/>
    <path d="M150.35,229.25c.13,0,.3,0,.3-.18s-.18-.18-.3-.18h-4.56c-.13,0-.3,0-.3.18s.18.18.3.18h4.56Z"/>
    <path d="M153.87,225.98c0-.22-.02-.22-.23-.22-.33.32-.75.51-1.51.51v.26c.22,0,.65,0,1.11-.22v4.09c0,.29-.02.39-.78.39h-.28v.26c.33-.02,1.01-.02,1.37-.02s1.05,0,1.38.02v-.26h-.28c-.76,0-.78-.1-.78-.39v-4.42Z"/>
    <path d="M182.54,229.01l-.43,1.1c-.04.12-.08.22-.08.35,0,.39.3.68.72.68.77,0,1.1-1.12,1.1-1.22l-.12-.1c-.1,0-.11.06-.14.14-.18.64-.51.96-.83.96-.1,0-.19-.04-.19-.25,0-.19.06-.33.16-.58.08-.22.16-.43.25-.65l.25-.65c.07-.18.17-.43.17-.57,0-.4-.32-.68-.72-.68-.77,0-1.11,1.12-1.11,1.22l.12.1c.1,0,.11-.05.14-.13.22-.76.59-.97.83-.97.11,0,.19.04.19.26,0,.08,0,.19-.09.43l-.22.55ZM183.7,226.08c0-.18-.13-.3-.31-.3-.21,0-.44.19-.44.43,0,.18.13.3.31.3.21,0,.44-.19.44-.43Z"/>
    <path d="M211.14,229.01l-.43,1.1c-.04.12-.08.22-.08.35,0,.39.3.68.72.68.77,0,1.1-1.12,1.1-1.22l-.12-.1c-.1,0-.11.06-.14.14-.18.64-.51.96-.83.96-.1,0-.19-.04-.19-.25,0-.19.06-.33.16-.58.08-.22.16-.43.25-.65l.25-.65c.07-.18.17-.43.17-.57,0-.4-.32-.68-.72-.68-.77,0-1.11,1.12-1.11,1.22l.12.1c.1,0,.11-.05.14-.13.22-.76.59-.97.83-.97.11,0,.19.04.19.26,0,.08,0,.19-.09.43l-.22.55ZM212.3,226.08c0-.18-.13-.3-.31-.3-.21,0-.44.19-.44.43,0,.18.13.3.31.3.21,0,.44-.19.44-.43Z"/>
    <path d="M221.9,225.98c0-.22-.02-.22-.23-.22-.33.32-.75.51-1.51.51v.26c.22,0,.65,0,1.11-.22v4.09c0,.29-.02.39-.78.39h-.28v.26c.33-.02,1.01-.02,1.37-.02s1.05,0,1.38.02v-.26h-.28c-.76,0-.78-.1-.78-.39v-4.42ZM216.29,229.25h2.34c.11,0,.29,0,.29-.18s-.18-.18-.29-.18h-2.34v-2.35c0-.11,0-.29-.18-.29s-.18.18-.18.29v2.35h-2.35c-.11,0-.29,0-.29.18s.18.18.29.18h2.35v2.35c0,.11,0,.29.18.29s.18-.18.18-.29v-2.35Z"/>
    <path d="M243.26,225.57c0-.26-.21-.48-.48-.48s-.48.22-.48.48.21.48.48.48.48-.22.48-.48ZM239.17,225.57c0-.26-.21-.48-.48-.48s-.48.22-.48.48.21.48.48.48.48-.22.48-.48ZM235.07,225.57c0-.26-.21-.48-.48-.48s-.48.22-.48.48.21.48.48.48.48-.22.48-.48Z"/>
    <path d="M262.75,226.66c.1-.39.27-.58.84-.61.08,0,.14-.05.14-.15l-.12-.11c-.06,0-.21.02-.8.02-.64,0-.74-.02-.81-.02-.13,0-.15.09-.15.15,0,.1.1.11.18.11.49.02.49.23.49.34,0,.04,0,.08-.03.21l-.88,3.49-1.92-4.16c-.06-.14-.08-.14-.27-.14h-1.04c-.14,0-.25,0-.25.15,0,.11.1.11.26.11.06,0,.3,0,.49.05l-1.07,4.28c-.1.4-.3.57-.84.59-.05,0-.14,0-.14.15l.12.11s.22-.02.79-.02c.63,0,.75.02.82.02.03,0,.15,0,.15-.15,0-.1-.09-.11-.14-.11-.29,0-.53-.06-.53-.33l.02-.16,1.04-4.16h0l2.21,4.77c.06.13.06.14.15.14.11,0,.12-.03.15-.17l1.11-4.4Z"/>
    <path d="M266.53,229.88c-.21.06-.26.23-.26.32,0,.19.16.23.24.23.17,0,.35-.14.35-.38,0-.32-.35-.47-.66-.47-.39,0-.63.31-.7.42-.08-.15-.31-.42-.75-.42-.69,0-1.09.71-1.09.92l.11.08.12-.09c.15-.48.56-.72.85-.72s.38.19.38.39c0,.07,0,.13-.05.31-.14.56-.27,1.1-.3,1.17-.09.23-.31.43-.56.43-.04,0-.2,0-.34-.09.23-.08.26-.28.26-.32,0-.16-.12-.23-.24-.23-.17,0-.35.13-.35.38,0,.34.38.47.66.47.34,0,.59-.23.7-.42.12.25.41.42.75.42.71,0,1.1-.72,1.1-.92,0-.01,0-.08-.11-.08l-.11.1c-.17.52-.6.71-.85.71-.23,0-.39-.13-.39-.38,0-.11.03-.25.08-.45l.19-.78c.06-.23.09-.34.22-.48.08-.09.23-.2.42-.2.03,0,.21,0,.34.09Z"/>
    <path d="M149.11,237.95c.66,1.33,2.23,2.27,4.62,2.27h7.05c2.59,0,4.51,1.05,5.34,2.71l-.36.18-.36-.18c.83-1.66,2.75-2.72,5.34-2.71h7.05c2.39,0,3.96-.94,4.62-2.27l.71.36c-.83,1.66-2.75,2.72-5.34,2.71h-7.05c-2.39,0-3.96.94-4.62,2.27l-.36.71-.36-.71c-.66-1.33-2.23-2.27-4.62-2.27h-7.05c-2.59,0-4.51-1.05-5.34-2.71l.71-.36Z"/>
    <path d="M162.84,247.42l2.49,4.84h-4.98l2.49-4.84ZM163.41,246.73c-.08-.16-.13-.21-.27-.21-.13,0-.18.04-.24.17l-3.1,6.04-.05.13c0,.08.06.08.21.08h6.38c.14,0,.21,0,.21-.08l-.04-.12-3.09-6.02Z"/>
    <path d="M171.4,249.33c-.33.06-.43.35-.43.48,0,.17.13.32.35.32.25,0,.49-.22.49-.53,0-.41-.45-.62-.87-.62-.54,0-.85.48-.96.66-.17-.44-.57-.66-1-.66-.96,0-1.48,1.15-1.48,1.38l.13.11.13-.1c.28-.89.87-1.17,1.21-1.17.26,0,.49.17.49.59,0,.32-.39,1.76-.5,2.19-.07.28-.34.83-.83.83-.18,0-.37-.06-.46-.12.24-.04.42-.25.42-.48s-.17-.32-.34-.32c-.26,0-.49.22-.49.53,0,.44.48.62.86.62.52,0,.83-.43.96-.67.22.59.75.67,1,.67.97,0,1.48-1.17,1.48-1.38l-.12-.11c-.1,0-.11.04-.15.17-.2.65-.72,1.09-1.18,1.09-.26,0-.5-.16-.5-.59,0-.2.13-.69.21-1.03.04-.16.28-1.13.3-1.19.11-.32.38-.8.83-.8.16,0,.33.03.47.12Z"/>
    <path class="st2" d="M255.46,245.41v-1.96h.69v1.96h-.69ZM254.14,245.41v-1.96h.69v1.96h-.69ZM252.84,245.41v-1.96h.68v1.96h-.68ZM251.4,245.41v.72h6.07v-.72h-.54v-2.66h-4.82v2.66h-.71ZM249.63,245.72l.69.5c.47-.82,1.01-1.86,1.43-2.77l-.61-.49c-.47.98-1.09,2.09-1.51,2.76ZM249.44,241.41c.55.24,1.26.65,1.6.93l.44-.66c-.36-.28-1.08-.66-1.62-.87l-.42.59ZM249.95,239.06c.55.26,1.24.66,1.58.95l.47-.66c-.35-.28-1.07-.65-1.59-.86l-.45.58ZM252.39,238.74v3.38h4.24v-3.38h-4.24ZM253.16,239.42h2.67v.69h-2.67v-.69ZM253.16,240.74h2.67v.7h-2.67v-.7ZM243.89,244.31h1.86v.74h-1.86v-.74ZM243.18,243.74v2.29h.71v-.41h2.33c.11.21.22.53.25.75.67,0,1.13,0,1.44-.14.29-.12.38-.35.38-.77v-2.9h-6.85v3.82h.79v-3.13h5.25v2.2c0,.11-.04.15-.18.15-.11.02-.44.02-.82,0v-1.87h-3.29ZM244.36,238.37v.78h-3.3v.7h7.53v-.7h-3.39v-.78h-.84ZM242.48,240.28v1.84h4.69v-1.84h-4.69ZM243.27,240.84h3.09v.7h-3.09v-.7ZM237.76,242.38c0,1.75.72,3.13,1.71,4.12l.66-.31c-.94-.98-1.59-2.22-1.59-3.81s.65-2.83,1.59-3.81l-.66-.31c-.98.99-1.71,2.37-1.71,4.12ZM227.14,243.3v.56h-2.6v.7h2.6v.84h-3.41v.71h7.73v-.71h-3.48v-.84h2.73v-.7h-2.73v-.56h-.84ZM224.74,239.33h1.7v.72h-1.7v-.72ZM225.15,241.8h1.37v.75h-1.37v-.75ZM224.04,238.71v1.42c0,.78-.06,1.83-.58,2.59.14.09.42.41.52.56.22-.32.39-.68.5-1.07v.95h2.75v-1.97h-2.54l.04-.52h2.46v-1.97h-3.15ZM229.04,238.46v.5h-1.43v.63h.78l-.34.07c.11.25.22.58.26.82h-.91v.65h1.64v.63h-1.49v.63h1.49v1.01h.76v-1.01h1.52v-.63h-1.52v-.63h1.72v-.65h-1.03c.1-.22.22-.53.34-.84l-.28-.04h.77v-.63h-1.52v-.5h-.76ZM228.73,239.59h1.36c-.07.25-.18.6-.28.84l.32.05h-1.47l.34-.08c-.03-.21-.15-.54-.28-.81ZM215.1,239.01v.83h3.23v6.53h.87v-4.37c.94.52,2.03,1.2,2.59,1.67l.59-.75c-.67-.53-2.03-1.29-3.03-1.78l-.15.17v-1.47h3.6v-.83h-7.7Z"/>
    <path class="st2" d="M265.24,240.19c.05-.2.07-.29.22-.31.07-.02.36-.02.55-.02,1.03,0,1.34.06,1.34.76,0,.12,0,.25-.08.78v.07s.12.13.12.13c.11,0,.13-.08.14-.22l.23-1.55.02-.13c0-.13-.09-.13-.26-.13h-5.11c-.22,0-.22,0-.29.18l-.56,1.58c-.04.12-.04.13-.04.14l.12.12c.1,0,.12-.05.17-.22.49-1.4.77-1.53,2.07-1.53h.35c.25,0,.25.03.25.1l-.04.19-1.2,4.8c-.08.32-.11.43-1.06.43-.29,0-.37,0-.37.16,0,.12.12.12.15.12.23,0,.49-.02.74-.02s.51,0,.76,0c.39,0,.41,0,.74,0,.12,0,.71.02.78.02.08,0,.19,0,.19-.16,0-.12-.08-.12-.31-.12s-.33,0-.57-.02c-.21-.03-.31-.04-.31-.19l.04-.18,1.2-4.8Z"/>
    <path class="st2" d="M282.97,239.92c0-.22,0-.24-.23-.24-.56.57-1.38.57-1.66.57v.28c.17,0,.72,0,1.2-.23v4.64c0,.33-.03.44-.86.44h-.29v.28c.32-.03,1.12-.03,1.49-.03s1.18,0,1.5.03v-.28h-.29c-.83,0-.86-.11-.86-.44v-5.02ZM276.84,244.52c.13,0,.33,0,.33-.2s-.17-.19-.3-.19h-5.54c-.12,0-.3,0-.3.19s.2.2.33.2h5.47ZM276.87,242.69c.13,0,.3,0,.3-.19s-.2-.2-.33-.2h-5.47c-.13,0-.33,0-.33.2s.18.19.3.19h5.54Z"/>
    <path class="st2" d="M287.61,242.38c0-1.75-.72-3.13-1.71-4.12l-.66.31c.94.98,1.59,2.22,1.59,3.81s-.65,2.83-1.59,3.81l.66.31c.98-.99,1.71-2.37,1.71-4.12Z"/>
    <path class="st5" d="M255.46,18.64v-1.96h.69v1.96h-.69ZM254.14,18.64v-1.96h.69v1.96h-.69ZM252.84,18.64v-1.96h.68v1.96h-.68ZM251.4,18.64v.72h6.07v-.72h-.54v-2.66h-4.82v2.66h-.71ZM249.63,18.95l.69.5c.47-.82,1.01-1.86,1.43-2.77l-.61-.49c-.47.98-1.09,2.09-1.51,2.76ZM249.44,14.64c.55.24,1.26.65,1.6.93l.44-.66c-.36-.28-1.08-.66-1.62-.87l-.42.59ZM249.95,12.29c.55.26,1.24.66,1.58.95l.47-.66c-.35-.28-1.07-.65-1.59-.86l-.45.58ZM252.39,11.97v3.38h4.24v-3.38h-4.24ZM253.16,12.65h2.67v.69h-2.67v-.69ZM253.16,13.97h2.67v.7h-2.67v-.7ZM242.69,11.64c-.46,1.28-1.24,2.53-2.06,3.35.14.19.37.63.45.83.26-.27.51-.58.75-.91v4.69h.78v-5.9c.34-.59.63-1.22.86-1.83l-.78-.23ZM244.45,13.26c.51-.06,1.03-.14,1.55-.22.02.52.04,1.03.09,1.53h-1.64v-1.32ZM243.08,17.5l.17.77c.85-.15,1.97-.34,3.04-.53l-.04-.73-1.8.29v-1.97h1.72c.27,2.25.86,3.97,1.85,3.97.6,0,.87-.32.97-1.56-.2-.08-.47-.25-.64-.42-.03.83-.1,1.18-.27,1.18-.44,0-.89-1.33-1.11-3.17h1.84v-.74h-1.92c-.05-.53-.08-1.1-.08-1.68.59-.11,1.15-.25,1.62-.4l-.61-.62c-.87.29-2.31.56-3.63.72l-.54-.17v4.98l-.58.09ZM243.36,18.68v.72h3.58v-.72h-3.58ZM237.76,15.61c0,1.75.72,3.13,1.71,4.12l.66-.31c-.94-.98-1.59-2.22-1.59-3.81s.65-2.83,1.59-3.81l-.66-.31c-.98.99-1.71,2.37-1.71,4.12ZM227.14,16.53v.56h-2.6v.7h2.6v.84h-3.41v.71h7.73v-.71h-3.48v-.84h2.73v-.7h-2.73v-.56h-.84ZM224.74,12.56h1.7v.72h-1.7v-.72ZM225.15,15.03h1.37v.75h-1.37v-.75ZM224.04,11.93v1.42c0,.78-.06,1.83-.58,2.59.14.09.42.41.52.56.22-.32.39-.68.5-1.07v.95h2.75v-1.97h-2.54l.04-.52h2.46v-1.97h-3.15ZM229.04,11.68v.5h-1.43v.63h.78l-.34.07c.11.25.22.58.26.82h-.91v.65h1.64v.63h-1.49v.63h1.49v1.01h.76v-1.01h1.52v-.63h-1.52v-.63h1.72v-.65h-1.03c.1-.22.22-.53.34-.84l-.28-.04h.77v-.63h-1.52v-.5h-.76ZM228.73,12.81h1.36c-.07.25-.18.6-.28.84l.32.05h-1.47l.34-.08c-.03-.21-.15-.54-.28-.81ZM218.23,11.73v6.65h-3.18v.82h7.8v-.82h-3.75v-3.25h3.16v-.82h-3.16v-2.58h-.87Z"/>
    <path class="st5" d="M265.24,13.42c.05-.2.07-.29.22-.31.07-.02.36-.02.55-.02,1.03,0,1.34.06,1.34.76,0,.12,0,.25-.08.78v.07s.12.13.12.13c.11,0,.13-.08.14-.22l.23-1.55.02-.13c0-.13-.09-.13-.26-.13h-5.11c-.22,0-.22,0-.29.18l-.56,1.58c-.04.12-.04.13-.04.14l.12.12c.1,0,.12-.05.17-.22.49-1.4.77-1.53,2.07-1.53h.35c.25,0,.25.03.25.1l-.04.19-1.2,4.8c-.08.32-.11.43-1.06.43-.29,0-.37,0-.37.16,0,.12.12.12.15.12.23,0,.49-.02.74-.02s.51,0,.76,0c.39,0,.41,0,.74,0,.12,0,.71.02.78.02.08,0,.19,0,.19-.16,0-.12-.08-.12-.31-.12s-.33,0-.57-.02c-.21-.03-.31-.04-.31-.19l.04-.18,1.2-4.8Z"/>
    <path class="st5" d="M282.55,18.86c-.27,0-.92-.13-1.09-1.14-.09-.53-.09-1.3-.09-1.81,0-.61,0-1.32.11-1.81.18-.8.75-.96,1.06-.96.34,0,.91.18,1.08,1.01.1.49.1,1.19.1,1.76s0,1.31-.09,1.84c-.19,1.02-.85,1.11-1.08,1.11ZM284.49,16.01c0-.6-.03-1.37-.34-2.05-.39-.84-1.08-1.06-1.6-1.06s-1.22.22-1.61,1.08c-.29.62-.33,1.35-.33,2.03,0,.58.02,1.45.4,2.16.42.76,1.12.91,1.53.91.58,0,1.25-.25,1.62-1.08.27-.6.32-1.27.32-1.99ZM276.84,17.74c.13,0,.33,0,.33-.2s-.17-.19-.3-.19h-5.54c-.12,0-.3,0-.3.19s.2.2.33.2h5.47ZM276.87,15.91c.13,0,.3,0,.3-.19s-.2-.2-.33-.2h-5.47c-.13,0-.33,0-.33.2s.18.19.3.19h5.54Z"/>
    <path class="st5" d="M287.61,15.61c0-1.75-.72-3.13-1.71-4.12l-.66.31c.94.98,1.59,2.22,1.59,3.81s-.65,2.83-1.59,3.81l.66.31c.98-.99,1.71-2.37,1.71-4.12Z"/>
    <path d="M53.82,220.79c-.27,0-.82-.13-.99-.96-.09-.45-.09-1.2-.09-1.62,0-.55,0-1.11.09-1.55.17-.81.79-.89.99-.89.27,0,.82.14.98.86.1.44.1,1.04.1,1.58,0,.47,0,1.19-.1,1.63-.17.84-.72.95-.98.95ZM55.6,218.31c0-.85-.09-1.37-.35-1.88-.35-.7-1-.88-1.43-.88-1,0-1.37.75-1.48.97-.29.58-.3,1.37-.3,1.78,0,.53.02,1.33.41,1.97.37.59.96.74,1.38.74.38,0,1.07-.12,1.47-.91.29-.57.32-1.28.32-1.8Z"/>
    <path d="M54.21,181.76c0-.22-.02-.22-.23-.22-.33.32-.75.51-1.51.51v.26c.22,0,.65,0,1.11-.22v4.09c0,.29-.02.39-.78.39h-.28v.26c.33-.02,1.01-.02,1.37-.02s1.05,0,1.38.02v-.26h-.28c-.76,0-.78-.1-.78-.39v-4.42Z"/>
    <circle cx="54.65" cy="160.59" r=".48"/>
    <circle cx="54.65" cy="164.58" r=".48"/>
    <circle cx="54.65" cy="168.56" r=".48"/>
    <path d="M42.86,141.17c-.12.49-.51,1-1,1-.13,0-.25-.03-.26-.04.25-.12.28-.33.28-.41,0-.19-.14-.29-.31-.29-.23,0-.45.2-.45.46,0,.3.29.5.75.5.49,0,1.36-.3,1.6-1.26l.72-2.85c.02-.1.04-.16.04-.28,0-.44-.35-.75-.81-.75-.84,0-1.34,1.12-1.34,1.22l.12.1c.09,0,.1-.02.15-.14.24-.55.65-.96,1.04-.96.17,0,.26.11.26.37,0,.11-.02.22-.05.33l-.75,2.98ZM44.52,135.8c0-.15-.12-.3-.31-.3-.24,0-.45.22-.45.43,0,.15.12.3.31.3.24,0,.45-.22.45-.43Z"/>
    <path d="M50.69,138.96c.13,0,.3,0,.3-.18s-.18-.18-.3-.18h-4.56c-.13,0-.3,0-.3.18s.18.18.3.18h4.56Z"/>
    <path d="M54.21,135.7c0-.22-.02-.22-.23-.22-.33.32-.75.51-1.51.51v.26c.22,0,.65,0,1.11-.22v4.09c0,.29-.02.39-.78.39h-.28v.26c.33-.02,1.01-.02,1.37-.02s1.05,0,1.38.02v-.26h-.28c-.76,0-.78-.1-.78-.39v-4.42Z"/>
    <path d="M53.68,107.15c-.12.49-.51,1-1,1-.13,0-.25-.03-.26-.04.25-.12.28-.33.28-.41,0-.19-.14-.29-.31-.29-.23,0-.45.2-.45.46,0,.3.29.5.75.5.49,0,1.36-.3,1.6-1.26l.72-2.85c.02-.1.04-.16.04-.28,0-.44-.35-.75-.81-.75-.84,0-1.34,1.12-1.34,1.22l.12.1c.09,0,.1-.02.15-.14.24-.55.65-.96,1.04-.96.17,0,.26.11.26.37,0,.11-.02.22-.05.33l-.75,2.98ZM55.35,101.78c0-.15-.12-.3-.31-.3-.24,0-.45.22-.45.43,0,.15.12.3.31.3.24,0,.45-.22.45-.43Z"/>
    <path d="M42.86,73.14c-.12.49-.51,1-1,1-.13,0-.25-.03-.26-.04.25-.12.28-.33.28-.41,0-.19-.14-.29-.31-.29-.23,0-.45.2-.45.46,0,.3.29.5.75.5.49,0,1.36-.3,1.6-1.26l.72-2.85c.02-.1.04-.16.04-.28,0-.44-.35-.75-.81-.75-.84,0-1.34,1.12-1.34,1.22l.12.1c.09,0,.1-.02.15-.14.24-.55.65-.96,1.04-.96.17,0,.26.11.26.37,0,.11-.02.22-.05.33l-.75,2.98ZM44.52,67.77c0-.15-.12-.3-.31-.3-.24,0-.45.22-.45.43,0,.15.12.3.31.3.24,0,.45-.22.45-.43Z"/>
    <path d="M54.21,67.67c0-.22-.02-.22-.23-.22-.33.32-.75.51-1.51.51v.26c.22,0,.65,0,1.11-.22v4.09c0,.29-.02.39-.78.39h-.28v.26c.33-.02,1.01-.02,1.37-.02s1.05,0,1.38.02v-.26h-.28c-.76,0-.78-.1-.78-.39v-4.42ZM48.59,70.93h2.34c.11,0,.29,0,.29-.18s-.18-.18-.29-.18h-2.34v-2.35c0-.11,0-.29-.18-.29s-.18.18-.18.29v2.35h-2.35c-.11,0-.29,0-.29.18s.18.18.29.18h2.35v2.35c0,.11,0,.29.18.29s.18-.18.18-.29v-2.35Z"/>
    <circle cx="54.65" cy="47.21" r=".48"/>
    <circle cx="54.65" cy="51.19" r=".48"/>
    <circle cx="54.65" cy="55.18" r=".48"/>
    <path d="M51.03,22.6c.1-.39.27-.58.84-.61.08,0,.14-.05.14-.15l-.12-.11c-.06,0-.21.02-.8.02-.64,0-.74-.02-.81-.02-.13,0-.15.09-.15.15,0,.1.1.11.18.11.49.02.49.23.49.34,0,.04,0,.08-.03.21l-.88,3.49-1.92-4.16c-.06-.14-.08-.14-.27-.14h-1.04c-.14,0-.25,0-.25.15,0,.11.1.11.26.11.06,0,.3,0,.49.05l-1.07,4.28c-.1.4-.3.57-.84.59-.05,0-.14,0-.14.15l.12.11s.22-.02.79-.02c.63,0,.75.02.82.02.03,0,.15,0,.15-.15,0-.1-.09-.11-.14-.11-.29,0-.53-.06-.53-.33l.02-.16,1.04-4.16h0l2.21,4.77c.06.13.06.14.15.14.11,0,.12-.03.15-.17l1.11-4.4Z"/>
    <path d="M55.01,25.87l.02-.08c0-.07-.05-.2-.22-.2-.1,0-.2.07-.25.15-.02.04-.07.23-.1.34l-.13.5-.19.75c-.04.17-.07.26-.31.49-.07.06-.26.22-.51.22-.44,0-.44-.39-.44-.5,0-.26.07-.53.33-1.19.06-.14.08-.19.08-.29,0-.33-.3-.52-.6-.52-.61,0-.9.79-.9.92l.11.08.12-.09c.17-.58.48-.72.65-.72.12,0,.16.08.16.22,0,.13-.08.33-.14.49-.21.53-.28.8-.28,1.02,0,.57.42.78.89.78.08,0,.36,0,.68-.28-.08.33-.13.56-.42.87-.11.12-.38.36-.74.36-.05,0-.31,0-.45-.16.26-.05.3-.28.3-.33,0-.16-.13-.23-.25-.23-.15,0-.35.12-.35.39s.28.53.75.53c.63,0,1.4-.47,1.59-1.21l.57-2.3Z"/>
    <path d="M32.35,139.27c-1.66-.83-2.72-2.75-2.71-5.34v-7.05c0-2.39-.94-3.96-2.27-4.62l-.71-.36.71-.36c1.33-.66,2.27-2.23,2.27-4.62v-7.05c0-2.59,1.05-4.51,2.71-5.34l.36.71c-1.33.66-2.27,2.23-2.27,4.62v7.05c0,2.59-1.05,4.51-2.71,5.34l-.18-.36.18-.36c1.66.83,2.72,2.75,2.71,5.34v7.05c0,2.39.94,3.96,2.27,4.62l-.36.71Z"/>
    <path d="M14.83,118.56l2.49,4.84h-4.98l2.49-4.84ZM15.39,117.88c-.08-.16-.13-.21-.27-.21-.13,0-.18.04-.24.17l-3.1,6.04-.05.13c0,.08.06.08.21.08h6.38c.14,0,.21,0,.21-.08l-.04-.12-3.09-6.02Z"/>
    <path d="M23.47,120.64l.03-.15c0-.12-.08-.26-.28-.26-.12,0-.28.07-.35.24,0,.04-.1.4-.15.6l-.45,1.79c-.07.26-.07.28-.09.36,0,.04-.39.74-1.03.74-.56,0-.56-.57-.56-.74,0-.4.12-.84.5-1.85.07-.21.13-.33.13-.5,0-.44-.33-.75-.77-.75-.86,0-1.22,1.27-1.22,1.38l.13.11c.1,0,.11-.05.14-.17.19-.66.55-1.09.92-1.09.22,0,.22.17.22.3,0,.15-.04.31-.12.53-.42,1.11-.54,1.49-.54,1.92,0,1,.81,1.09,1.14,1.09.44,0,.75-.23.92-.39-.12.46-.22.86-.57,1.31-.27.36-.63.6-1.02.6-.25,0-.55-.09-.67-.34.48,0,.54-.39.54-.48,0-.2-.14-.32-.34-.32-.22,0-.5.17-.5.58,0,.47.41.79.98.79.92,0,1.89-.78,2.15-1.83l.87-3.46Z"/>
    <circle class="st1" cx="182.77" cy="104.89" r="4.93"/>
    <path class="st3" d="M191.34,99.28l-.08-.13c-1.16-1.06-1.51-2.67-1.51-4.24,0-1.39.27-3.08,1.53-4.28l.05-.11-.11-.1c-.11,0-.92.65-1.4,1.62-.43.86-.65,1.79-.65,2.85,0,.65.08,1.67.57,2.73.53,1.1,1.36,1.76,1.47,1.76l.11-.1Z"/>
    <path class="st3" d="M202.44,97.55c-.19.76-.66,1.2-1.11,1.2-.19,0-.22-.02-.32-.05.17-.06.36-.25.36-.48,0-.2-.15-.32-.34-.32-.25,0-.49.21-.49.51,0,.39.39.57.81.57.65,0,1.51-.48,1.73-1.36l.83-3.32c.04-.14.04-.28.04-.29,0-.49-.37-.83-.87-.83-.93,0-1.46,1.28-1.46,1.38l.13.11c.09,0,.1-.03.17-.2.25-.57.68-1.07,1.15-1.07.27,0,.28.25.28.41,0,0,0,.18-.03.29l-.86,3.45ZM204.27,91.54c0-.17-.13-.33-.34-.33-.23,0-.48.21-.48.48,0,.22.17.33.33.33.28,0,.49-.26.49-.48ZM196.65,97c0,.3,0,1.03-.66,1.67l-.05.1.12.11c.1,0,.83-.7.83-1.75,0-.56-.2-.95-.58-.95-.31,0-.48.23-.48.48s.18.48.48.48c.13,0,.27-.04.36-.14ZM194.59,95.86l-.12-.11c-.1,0-.11.04-.14.16-.22.74-.58,1.1-.92,1.1-.14,0-.22-.07-.22-.3s.07-.41.14-.58c.16-.43.16-.45.28-.73.14-.39.34-.9.43-1.15.06-.16.06-.25.06-.33,0-.51-.4-.75-.76-.75-.87,0-1.22,1.28-1.22,1.38l.13.11c.1,0,.11-.05.14-.17.19-.64.53-1.09.92-1.09.09,0,.22.02.22.29,0,.22-.09.46-.17.66l-.64,1.66c-.06.17-.12.31-.12.48,0,.42.31.75.77.75.87,0,1.21-1.29,1.21-1.38ZM194.46,91.54c0-.2-.14-.33-.34-.33-.24,0-.48.23-.48.48,0,.18.13.33.34.33.24,0,.48-.22.48-.48Z"/>
    <path class="st3" d="M207.6,94.89c0-.74-.11-1.72-.57-2.72-.53-1.1-1.36-1.76-1.47-1.76l-.11.1.08.13c.52.47,1.51,1.69,1.51,4.24,0,1.28-.23,3.07-1.53,4.28l-.05.11.11.1c.11,0,.92-.65,1.4-1.62.43-.86.65-1.79.65-2.86Z"/>
    <path class="st4" d="M158.86,105.29h-2.99v-.8h2.99v.8ZM164.84,105.29h-2.99v-.8h2.99v.8ZM170.81,105.29h-2.99v-.8h2.99v.8ZM176.79,105.29h-2.99v-.8h2.99v.8ZM182.77,105.29h-2.99v-.8h2.99v.8Z"/>
    <path class="st4" d="M150.4,104.89c.56.14,3,.92,4.53,1.77v-3.54c-1.53.85-3.98,1.63-4.53,1.77Z"/>
    <path class="st4" d="M150.4,104.89l.1-.39c.6.15,3.04.93,4.63,1.81l-.19.35h-.4v-3.54h.4l.19.35c-1.6.88-4.03,1.66-4.63,1.81l-.1-.39.1-.39-.1.39-.1-.39c.51-.12,2.97-.91,4.44-1.73l.59-.33v4.9l-.59-.33c-1.46-.82-3.93-1.61-4.44-1.73l-1.56-.39,1.56-.39.1.39Z"/>
    <path class="st4" d="M206.68,104.5h2.99v.8h-2.99v-.8ZM200.7,104.5h2.99v.8h-2.99v-.8ZM194.72,104.5h2.99v.8h-2.99v-.8ZM188.75,104.5h2.99v.8h-2.99v-.8ZM182.77,104.5h2.99v.8h-2.99v-.8Z"/>
    <path class="st4" d="M215.14,104.89c-.56-.14-3-.92-4.53-1.77v3.54c1.53-.85,3.98-1.63,4.53-1.77Z"/>
    <path class="st4" d="M215.14,104.89l-.1.39c-.6-.15-3.04-.93-4.63-1.81l.19-.35h.4v3.54h-.4l-.19-.35c1.6-.88,4.03-1.66,4.63-1.81l.1.39-.1.39.1-.39.1.39c-.51.12-2.97.91-4.44,1.73l-.59.33v-4.9l.59.33c1.46.82,3.93,1.61,4.44,1.73l1.56.39-1.56.39-.1-.39Z"/>
    <path class="st4" d="M183.17,128.81v2.99h-.8v-2.99h.8ZM183.17,122.83v2.99h-.8v-2.99h.8ZM183.17,116.85v2.99h-.8v-2.99h.8ZM183.17,110.87v2.99h-.8v-2.99h.8ZM183.17,104.89v2.99h-.8v-2.99h.8Z"/>
    <path class="st4" d="M182.77,137.27c.14-.56.92-3,1.77-4.53h-3.54c.85,1.53,1.63,3.98,1.77,4.53Z"/>
    <path class="st4" d="M182.77,137.27l-.39-.1c.15-.6.93-3.04,1.81-4.63l.35.19v.4h-3.54v-.4l.35-.19c.88,1.6,1.66,4.03,1.81,4.63l-.39.1-.39-.1.39.1-.39.1c-.12-.51-.91-2.97-1.73-4.44l-.33-.59h4.9l-.33.59c-.82,1.46-1.61,3.93-1.73,4.44l-.39,1.56-.39-1.56.39-.1Z"/>
    <path class="st4" d="M182.37,80.98v-2.99h.8v2.99h-.8ZM182.37,86.96v-2.99h.8v2.99h-.8ZM182.37,92.94v-2.99h.8v2.99h-.8ZM182.37,98.92v-2.99h.8v2.99h-.8ZM182.37,104.89v-2.99h.8v2.99h-.8Z"/>
    <path class="st4" d="M182.77,72.52c-.14.56-.92,3-1.77,4.53h3.54c-.85-1.53-1.63-3.98-1.77-4.53Z"/>
    <path class="st4" d="M182.77,72.52l.39.1c-.15.6-.93,3.04-1.81,4.63l-.35-.19v-.4h3.54v.4l-.35.19c-.88-1.6-1.66-4.03-1.81-4.63l.39-.1.39.1-.39-.1.39-.1c.12.51.91,2.97,1.73,4.44l.33.59h-4.9l.33-.59c.82-1.46,1.61-3.93,1.73-4.44l.39-1.56.39,1.56-.39.1Z"/>
  </g>
</svg>